<svg width="300" height="300" viewBox="0 0 300 300" fill="none" xmlns="http://www.w3.org/2000/svg">

<rect mask="url(#mask)" width="300" height="300" rx="40" ry="40" fill="#FFCC00"/>

<path d="M212.296 75H201.178C200.085 75 199.173 75.9113 199.173 77.0049V121.659H100.31V77.0049C100.31 75.9113 99.3985 75 98.305 75H87.0049C85.9113 75 85 75.9113 85 77.0049V222.995C85 224.089 85.9113 225 87.0049 225H98.1227C99.2163 225 100.128 224.089 100.128 222.995V206.227H198.991V222.995C198.991 224.089 199.902 225 200.996 225H212.114C213.207 225 214.119 224.089 214.119 222.995V77.0049C214.301 75.9113 213.39 75 212.296 75ZM100.31 191.282V136.968H199.173V191.282H100.31Z" fill="#1E1E1E"/>
<path d="M118.171 114.916H140.954C143.323 114.916 145.146 113.093 145.146 110.724V89.5816C145.146 87.2122 143.323 85.3896 140.954 85.3896H118.171C115.802 85.3896 113.979 87.2122 113.979 89.5816V110.724C113.979 113.093 115.802 114.916 118.171 114.916Z" fill="#1E1E1E"/>
<path d="M160.091 114.916H182.874C185.243 114.916 187.066 113.093 187.066 110.724V89.5816C187.066 87.2122 185.243 85.3896 182.874 85.3896H160.091C157.722 85.3896 155.899 87.2122 155.899 89.5816V110.724C156.081 113.093 157.904 114.916 160.091 114.916Z" fill="#1E1E1E"/>
<path d="M140.954 154.832H118.171C115.802 154.832 113.979 156.654 113.979 159.024V180.166C113.979 182.535 115.802 184.358 118.171 184.358H140.954C143.323 184.358 145.146 182.535 145.146 180.166V159.024C145.146 156.654 143.323 154.832 140.954 154.832Z" fill="#1E1E1E"/>
<path d="M183.056 154.832H160.091C157.722 154.832 155.899 156.654 155.899 159.024V180.166C155.899 182.535 157.722 184.358 160.091 184.358H182.874C185.243 184.358 187.066 182.535 187.066 180.166V159.024C187.066 156.654 185.243 154.832 183.056 154.832Z" fill="#1E1E1E"/>
</svg>
