<svg width="300" height="300" viewBox="0 0 300 300" fill="none" xmlns="http://www.w3.org/2000/svg">

<rect mask="url(#mask)" width="300" height="300" rx="40" ry="40" fill="#FFCC00"/>

<path d="M124.431 158.477C122.222 158.477 120.431 156.686 120.431 154.477V143.799C120.431 141.59 122.222 139.799 124.431 139.799H228.5C230.709 139.799 232.5 141.59 232.5 143.799V154.477C232.5 156.686 230.709 158.477 228.5 158.477H124.431ZM124.431 203.305C122.222 203.305 120.431 201.514 120.431 199.305V188.626C120.431 186.417 122.222 184.626 124.431 184.626H228.5C230.709 184.626 232.5 186.417 232.5 188.626V199.305C232.5 201.514 230.709 203.305 228.5 203.305H124.431ZM124.431 113.649C122.222 113.649 120.431 111.859 120.431 109.649V98.9713C120.431 96.7621 122.222 94.9713 124.431 94.9713H228.5C230.709 94.9713 232.5 96.7621 232.5 98.9713V109.649C232.5 111.859 230.709 113.649 228.5 113.649H124.431ZM70 91.5C70 89.2909 71.7909 87.5 74 87.5H99.6207C101.83 87.5 103.621 89.2909 103.621 91.5V117.121C103.621 119.33 101.83 121.121 99.6207 121.121H74C71.7909 121.121 70 119.33 70 117.121V91.5ZM81.2069 105.914C81.2069 108.123 82.9978 109.914 85.2069 109.914H88.4138C90.6229 109.914 92.4138 108.123 92.4138 105.914V102.707C92.4138 100.498 90.6229 98.7069 88.4138 98.7069H85.2069C82.9978 98.7069 81.2069 100.498 81.2069 102.707V105.914ZM70 136.328C70 134.118 71.7909 132.328 74 132.328H99.6207C101.83 132.328 103.621 134.118 103.621 136.328V161.948C103.621 164.157 101.83 165.948 99.6207 165.948H74C71.7909 165.948 70 164.157 70 161.948V136.328ZM81.2069 150.741C81.2069 152.951 82.9978 154.741 85.2069 154.741H88.4138C90.6229 154.741 92.4138 152.951 92.4138 150.741V147.534C92.4138 145.325 90.6229 143.534 88.4138 143.534H85.2069C82.9978 143.534 81.2069 145.325 81.2069 147.534V150.741ZM70 181.155C70 178.946 71.7909 177.155 74 177.155H99.6207C101.83 177.155 103.621 178.946 103.621 181.155V206.776C103.621 208.985 101.83 210.776 99.6207 210.776H74C71.7909 210.776 70 208.985 70 206.776V181.155ZM81.2069 195.569C81.2069 197.778 82.9978 199.569 85.2069 199.569H88.4138C90.6229 199.569 92.4138 197.778 92.4138 195.569V192.362C92.4138 190.153 90.6229 188.362 88.4138 188.362H85.2069C82.9978 188.362 81.2069 190.153 81.2069 192.362V195.569Z" fill="#1E1E1E"/>
</svg>
