<svg width="300" height="300" viewBox="0 0 300 300" fill="none" xmlns="http://www.w3.org/2000/svg">

<rect mask="url(#mask)" width="300" height="300" rx="40" ry="40" fill="#FFCC00"/>

<path d="M92.8671 162.948C87.955 142.56 94.519 121.194 110.038 107.175C127.535 91.3518 153.443 88.1133 174.331 98.7418L168.441 98.9591C166.267 99.0461 164.267 99.9807 162.789 101.567C161.311 103.154 160.551 105.241 160.638 107.414C160.833 111.87 164.441 115.217 169.071 115.217L196.979 114.174C201.5 114 204.782 110.327 204.782 105.415L203.76 77.8325C203.673 75.659 202.739 73.6376 201.152 72.1813C199.457 70.6164 197.348 69.8339 195.327 70.0295C193.154 70.1165 191.132 71.0294 189.654 72.6378C188.176 74.2244 187.415 76.2893 187.502 78.4628L187.85 87.7003C177.222 80.8754 164.876 76.9196 152.009 76.2893C132.425 75.2895 113.689 81.9839 99.1703 95.1555C79.1739 113.174 70.7407 140.626 77.0656 166.795C77.9568 170.446 81.1953 173.011 84.9555 173.011C85.6728 173.011 86.3248 172.924 86.8899 172.772C88.9983 172.25 90.7805 170.925 91.9108 169.055C93.0193 167.208 93.3453 165.034 92.8454 162.948H92.8671Z" fill="#1E1E1E"/>
<path d="M220.714 134.213V134.083C220.149 131.974 218.823 130.192 216.953 129.062C215.106 127.953 212.932 127.627 210.824 128.149C208.738 128.671 206.977 129.975 205.825 131.822C204.695 133.691 204.347 135.865 204.869 137.952C209.824 158.339 203.238 179.705 187.698 193.724C177.2 203.222 163.637 208.439 149.465 208.439C139.685 208.439 130.121 205.961 121.644 201.245L129.23 200.549C131.404 200.353 133.338 199.31 134.729 197.658C136.12 195.985 136.794 193.876 136.577 191.703C136.381 189.551 135.338 187.595 133.664 186.204C131.99 184.813 129.882 184.161 127.73 184.356L99.9309 186.856C95.4752 187.291 92.1931 191.246 92.5844 195.702L95.0839 223.48C95.4534 227.74 99.0615 230.848 103.908 230.848C106.06 230.652 108.016 229.609 109.386 227.957C110.799 226.284 111.451 224.175 111.233 222.023L110.494 213.59C121.014 220.198 133.142 224.023 145.749 224.653C165.224 225.675 184.003 218.959 198.587 205.809C218.497 187.79 226.952 160.404 220.67 134.257L220.714 134.213Z" fill="#1E1E1E"/>
</svg>
