<svg width="300" height="301" viewBox="0 0 300 301" fill="none" xmlns="http://www.w3.org/2000/svg">

<rect mask="url(#mask)" width="300" height="300" rx="40" ry="40" fill="#FFCC00"/>

<path d="M138.34 83.5C107.62 83.4997 82.4997 109.022 82.5 140.228C82.5 171.431 107.622 196.946 138.34 196.946C151.118 196.946 162.926 192.527 172.361 185.124C172.369 187.847 173.437 190.457 175.332 192.384L202.669 217.98C206.633 222.007 213.06 222.007 217.025 217.98C220.992 213.952 220.992 207.42 217.025 203.392L189.69 177.8C187.794 175.874 185.226 174.788 182.545 174.779C189.832 165.195 194.181 153.202 194.181 140.222C194.178 109.02 169.058 83.5005 138.34 83.5ZM138.34 104.127C158.085 104.127 173.875 120.165 173.875 140.222C173.875 160.958 160.139 176.319 138.34 176.319C118.594 176.32 102.806 160.285 102.806 140.228V140.225C102.806 118.818 119.434 104.127 138.34 104.127Z" fill="#1E1E1E"/>
</svg>
