<svg width="300" height="300" viewBox="0 0 300 300" fill="none" xmlns="http://www.w3.org/2000/svg">

<rect mask="url(#mask)" width="300" height="300" rx="40" ry="40" fill="#FFCC00"/>

<path fill-rule="evenodd" clip-rule="evenodd" d="M77.8903 225H220.095C225.689 225 230.676 222.102 233.462 217.25C236.247 212.397 236.202 206.623 233.372 201.816L163.236 82.5932C160.472 77.8755 155.552 75.0449 150.071 75H149.981C144.545 75 139.625 77.7857 136.816 82.436L64.7033 201.636C61.8502 206.376 61.7603 212.33 64.4786 217.16C67.2194 221.99 72.3414 225 77.8903 225ZM219.533 209.274H78.4744L149.981 91.0401L219.533 209.274ZM141.31 158.28L142.253 168.367V170.254C142.882 172.456 144.141 174.051 145.713 175.309C146.971 176.252 148.544 176.567 150.139 176.567H152.026C155.485 175.623 158.024 172.456 158.338 168.996V166.48L160.855 132.086V129.57C160.855 127.683 160.54 125.773 159.282 124.515C157.08 122.314 153.913 120.719 150.453 120.404C148.252 120.404 145.713 121.033 143.826 121.977C142.568 122.606 140.995 123.549 139.715 124.807C138.771 126.065 138.142 127.323 138.457 128.918V131.12L140.344 153.832L141.287 158.258L141.31 158.28ZM150.139 179.73C144.14 179.73 139.086 184.785 139.086 190.783C139.086 193.614 140.344 196.467 142.231 198.668C144.432 200.87 146.971 201.813 150.116 201.813C152.947 201.813 155.8 200.555 158.001 198.668C160.203 196.467 161.146 193.928 161.146 190.783C161.146 187.952 159.888 185.099 158.001 182.898C155.8 180.696 153.261 179.753 150.116 179.753L150.139 179.73Z" fill="#1E1E1E"/>
</svg>
