<svg width="300" height="300" viewBox="0 0 300 300" fill="none" xmlns="http://www.w3.org/2000/svg">

<rect mask="url(#mask)" width="300" height="300" rx="40" ry="40" fill="#FFCC00"/>

<path d="M157.955 95C155.845 95.0002 153.822 95.8383 152.33 97.3301C150.838 98.8218 150 100.845 150 102.955V126.818H62.5V142.727H150V166.591H123.309C118.8 157.242 109.298 150.682 98.2955 150.682C87.2931 150.682 77.791 157.242 73.2821 166.591H62.5V182.5H70.8585C72.8264 195.907 84.3755 206.364 98.2955 206.364C112.215 206.364 123.765 195.907 125.732 182.5H166.313C168.281 195.907 179.83 206.364 193.75 206.364C207.67 206.364 219.219 195.907 221.187 182.5H229.545C231.655 182.5 233.678 181.662 235.17 180.17C236.662 178.678 237.5 176.655 237.5 174.545V145.166C237.5 140.747 236.265 136.418 233.958 132.66C233.958 132.655 233.958 132.649 233.958 132.644L217.753 106.341C213.414 99.2958 205.703 95 197.432 95H157.955ZM165.909 110.909H197.432C200.202 110.909 202.754 112.328 204.206 114.684L220.41 140.987C221.184 142.253 221.591 143.705 221.591 145.166V166.591H218.763C214.254 157.242 204.752 150.682 193.75 150.682C182.748 150.682 173.246 157.242 168.737 166.591H165.909V142.727V110.909ZM98.2955 166.591C104.979 166.591 110.227 171.839 110.227 178.523C110.227 185.207 104.979 190.455 98.2955 190.455C91.6115 190.455 86.3636 185.207 86.3636 178.523C86.3636 171.839 91.6115 166.591 98.2955 166.591ZM193.75 166.591C200.434 166.591 205.682 171.839 205.682 178.523C205.682 185.207 200.434 190.455 193.75 190.455C187.066 190.455 181.818 185.207 181.818 178.523C181.818 171.839 187.066 166.591 193.75 166.591Z" fill="#1E1E1E"/>
</svg>
