<svg width="300" height="300" viewBox="0 0 300 300" fill="none" xmlns="http://www.w3.org/2000/svg">

<rect mask="url(#mask)" width="300" height="300" rx="40" ry="40" fill="#FFCC00"/>

<path fill-rule="evenodd" clip-rule="evenodd" d="M137.933 112.3L137.954 112.3C130.872 119.201 127.329 127.534 127.329 137.302L127.329 174.96L147.878 150.137C149.261 148.466 151.725 148.202 153.43 149.543L162.794 156.899C164.563 158.288 164.839 160.863 163.404 162.595L125.4 208.494C125.339 208.575 125.279 208.656 125.215 208.735C125.179 208.775 125.143 208.816 125.111 208.855C125.016 208.963 124.922 209.068 124.822 209.175C124.733 209.281 124.637 209.381 124.535 209.477C124.49 209.532 124.443 209.587 124.392 209.638C123.618 210.389 122.782 210.989 121.883 211.44C121.598 211.585 121.302 211.718 121 211.839C120.705 211.952 120.405 212.053 120.098 212.141C119.535 212.294 118.954 212.395 118.348 212.443C118.284 212.448 118.212 212.456 118.146 212.461L117.138 212.5C114.875 212.494 112.829 211.766 110.994 210.316C110.847 210.202 110.705 210.084 110.563 209.955L110.501 209.937C110.386 209.839 110.278 209.74 110.171 209.638C109.733 209.212 109.344 208.763 109.001 208.293L72.6018 163.908C71.1757 162.169 71.4632 159.596 73.238 158.215L82.6214 150.911C84.3335 149.579 86.7958 149.854 88.1714 151.532L107.234 174.779L107.234 137.302C107.234 122.12 112.734 109.167 123.737 98.4382L123.756 98.4382C134.785 87.7153 148.077 82.3529 163.638 82.3529C179.21 82.3529 192.496 87.7116 203.499 98.4382C214.502 109.167 220.004 122.12 220 137.302L220 204.438C220 206.648 218.209 208.438 216 208.438L203.907 208.438C201.698 208.438 199.907 206.648 199.907 204.438L199.907 137.302C199.905 127.534 196.364 119.201 189.282 112.3C182.207 105.398 173.659 101.944 163.638 101.944C153.609 101.944 145.042 105.394 137.933 112.3Z" fill="#1E1E1E"/>
</svg>
