<svg width="300" height="300" viewBox="0 0 300 300" fill="none" xmlns="http://www.w3.org/2000/svg">

<rect mask="url(#mask)" width="300" height="300" rx="40" ry="40" fill="#FFCC00"/>

<path d="M150.925 75.0077C150.507 75.0313 150.092 75.0966 149.688 75.203L76.7868 93.9554C75.7892 94.2072 74.8692 94.7016 74.1084 95.3945C73.3476 96.0873 72.7696 96.9573 72.4257 97.9273L57.8455 139.599C57.3147 141.129 57.398 142.805 58.0779 144.275C58.7578 145.744 59.9812 146.893 61.4906 147.478L72.1003 151.645V197.94C72.1062 199.298 72.5541 200.617 73.3761 201.698C74.1982 202.779 75.3497 203.563 76.6566 203.931L149.558 224.766C150.664 225.078 151.836 225.078 152.942 224.766L225.843 203.931C227.15 203.563 228.302 202.779 229.124 201.698C229.946 200.617 230.394 199.298 230.4 197.94V151.645L241.009 147.478C242.519 146.893 243.742 145.744 244.422 144.275C245.102 142.805 245.185 141.129 244.654 139.599L230.074 97.9273C229.73 96.9573 229.152 96.0873 228.392 95.3945C227.631 94.7016 226.711 94.2072 225.713 93.9554L152.812 75.203C152.197 75.0422 151.56 74.9764 150.925 75.0077ZM151.25 87.7046L205.861 101.769L151.25 120.456L96.6393 101.769L151.25 87.7046ZM81.6035 109.778L142.723 130.744L129.25 160.696L71.6447 138.037L81.6035 109.778ZM220.897 109.778L230.855 138.037L173.25 160.696L159.777 130.744L220.897 109.778ZM145.001 156.268V210.507L84.5976 193.187V156.594L130.226 174.565C131.723 175.158 133.391 175.151 134.882 174.544C136.374 173.938 137.574 172.779 138.232 171.309L145.001 156.268ZM157.499 156.268L164.268 171.309C164.926 172.779 166.126 173.938 167.618 174.544C169.109 175.151 170.777 175.158 172.274 174.565L217.902 156.594V193.187L157.499 210.507V156.268Z" fill="black"/>
</svg>
