<svg width="21" height="20" viewBox="0 0 21 20" fill="none" xmlns="http://www.w3.org/2000/svg">
<path fill-rule="evenodd" clip-rule="evenodd" d="M0.5 10C0.5 4.47715 4.97715 0 10.5 0C13.1522 0 15.6957 1.05357 17.5711 2.92893C19.4464 4.8043 20.5 7.34784 20.5 10C20.5 15.5228 16.0228 20 10.5 20C4.97715 20 0.5 15.5228 0.5 10ZM2.5 10C2.5 14.4183 6.08172 18 10.5 18C12.6217 18 14.6566 17.1571 16.1569 15.6569C17.6571 14.1566 18.5 12.1217 18.5 10C18.5 5.58172 14.9183 2 10.5 2C6.08172 2 2.5 5.58172 2.5 10ZM10 12C9.72386 12 9.5 12.2239 9.5 12.5V13.5C9.5 13.7761 9.72386 14 10 14H11C11.2761 14 11.5 13.7761 11.5 13.5V12.5C11.5 12.2239 11.2761 12 11 12H10ZM9.82001 6.00001H11.18C11.3237 5.99897 11.4609 6.0598 11.5566 6.16699C11.6523 6.27417 11.6973 6.41735 11.68 6.56001L11.28 9.78001C11.2648 9.90625 11.1572 10.0009 11.03 10H9.97001C9.84286 10.0009 9.73527 9.90625 9.72001 9.78001L9.32001 6.56001C9.30276 6.41735 9.34773 6.27417 9.44343 6.16699C9.53913 6.0598 9.67632 5.99897 9.82001 6.00001Z" fill="#CC0033"/>
</svg>