<svg width="20" height="20" viewBox="0 0 20 20" fill="none" xmlns="http://www.w3.org/2000/svg">
<path fill-rule="evenodd" clip-rule="evenodd" d="M10 0C4.47715 0 0 4.47715 0 10C0 15.5228 4.47715 20 10 20C15.5228 20 20 15.5228 20 10C20 7.34784 18.9464 4.8043 17.0711 2.92893C15.1957 1.05357 12.6522 0 10 0ZM11 13.5C11 13.7761 10.7761 14 10.5 14H9.5C9.22386 14 9 13.7761 9 13.5V12.5C9 12.2239 9.22386 12 9.5 12H10.5C10.7761 12 11 12.2239 11 12.5V13.5ZM10.53 10C10.6572 10.0009 10.7647 9.90624 10.78 9.78L11.18 6.56C11.1972 6.41735 11.1523 6.27417 11.0566 6.16698C10.9609 6.05979 10.8237 5.99896 10.68 6H9.32C9.17631 5.99896 9.03912 6.05979 8.94342 6.16698C8.84772 6.27417 8.80275 6.41735 8.82 6.56L9.22 9.78C9.23526 9.90624 9.34284 10.0009 9.47 10H10.53Z" fill="#CC1F36"/>
</svg>
