<svg width="12" height="22" viewBox="0 0 12 22" fill="none" xmlns="http://www.w3.org/2000/svg">
<path d="M11.17 19.0801C11.2647 19.1739 11.3179 19.3017 11.3179 19.4351C11.3179 19.5684 11.2647 19.6962 11.17 19.7901L10.11 20.8501C10.0193 20.9467 9.89259 21.0016 9.76 21.0016C9.62742 21.0016 9.50073 20.9467 9.41 20.8501L0.22 11.6601C0.0793075 11.5195 0.000175052 11.3289 0 11.1301V10.8701C0.000175052 10.6712 0.0793075 10.4806 0.22 10.3401L9.41 1.15005C9.50073 1.05338 9.62742 0.998535 9.76 0.998535C9.89259 0.998535 10.0193 1.05338 10.11 1.15005L11.17 2.21005C11.2647 2.30394 11.3179 2.43174 11.3179 2.56505C11.3179 2.69837 11.2647 2.82617 11.17 2.92005L3.09 11.0001L11.17 19.0801Z" fill="#d42020"/>
</svg>
