<svg width="150" height="125" viewBox="0 0 150 125" fill="none" xmlns="http://www.w3.org/2000/svg">
<path fill-rule="evenodd" clip-rule="evenodd" d="M29.1843 98.6229C30.6177 98.6229 31.7797 97.4609 31.7797 96.0275V28.5487C31.7797 27.1153 30.6177 25.9534 29.1843 25.9534H23.9937C22.5603 25.9534 21.3983 27.1153 21.3983 28.5487V96.0275C21.3983 97.4609 22.5603 98.6229 23.9937 98.6229H29.1843ZM117.426 25.9534H122.617C124.05 25.9534 125.212 27.1153 125.212 28.5487V96.0275C125.212 97.4609 124.05 98.6229 122.617 98.6229H117.426C115.992 98.6229 114.831 97.4609 114.831 96.0275V28.5487C114.831 27.1153 115.992 25.9534 117.426 25.9534ZM81.0911 25.9534C79.6577 25.9534 78.4958 27.1153 78.4958 28.5487V85.6462C78.4958 87.0795 79.6577 88.2415 81.0911 88.2415C82.5245 88.2415 83.6865 87.0795 83.6865 85.6462V28.5487C83.6865 27.1153 82.5245 25.9534 81.0911 25.9534ZM42.161 28.5487C42.161 27.1153 43.323 25.9534 44.7564 25.9534C46.1897 25.9534 47.3517 27.1153 47.3517 28.5487V85.6462C47.3517 87.0795 46.1897 88.2415 44.7564 88.2415C43.323 88.2415 42.161 87.0795 42.161 85.6462V28.5487ZM101.854 25.9534H96.6631C95.2298 25.9534 94.0678 27.1153 94.0678 28.5487V85.6462C94.0678 87.0795 95.2298 88.2415 96.6631 88.2415H101.854C103.287 88.2415 104.449 87.0795 104.449 85.6462V28.5487C104.449 27.1153 103.287 25.9534 101.854 25.9534ZM65.5191 25.9534C66.9524 25.9534 68.1144 27.1153 68.1144 28.5487V85.6462C68.1144 87.0795 66.9524 88.2415 65.5191 88.2415H60.3284C58.895 88.2415 57.7331 87.0795 57.7331 85.6462V28.5487C57.7331 27.1153 58.895 25.9534 60.3284 25.9534H65.5191Z" fill="#1E1E1E"/>
<path d="M0 3.38983H25V9.74576H6.35593V27.9661H0V3.38983Z" fill="#1E1E1E"/>
<path d="M150 2.54236L150 27.5424L143.644 27.5424L143.644 8.89829L125.424 8.89829L125.424 2.54236L150 2.54236Z" fill="#1E1E1E"/>
<path d="M150 116.949L125 116.949L125 110.593L143.644 110.593L143.644 92.3729L150 92.3729L150 116.949Z" fill="#1E1E1E"/>
<path d="M0 117.797L3.27835e-06 92.7966L6.35594 92.7966L6.35593 111.441L24.5763 111.441L24.5763 117.797L0 117.797Z" fill="#1E1E1E"/>
</svg>