
<svg width="41" height="40" viewBox="0 0 41 40" fill="none" xmlns="http://www.w3.org/2000/svg">
<path fill-rule="evenodd" clip-rule="evenodd" d="M0.5 20C0.5 8.9543 9.4543 0 20.5 0C25.8043 0 30.8914 2.10714 34.6421 5.85786C38.3929 9.60859 40.5 14.6957 40.5 20C40.5 31.0457 31.5457 40 20.5 40C9.4543 40 0.5 31.0457 0.5 20ZM4.5 20C4.5 28.8366 11.6634 36 20.5 36C24.7435 36 28.8131 34.3143 31.8137 31.3137C34.8143 28.3131 36.5 24.2435 36.5 20C36.5 11.1634 29.3366 4 20.5 4C11.6634 4 4.5 11.1634 4.5 20ZM19.5 24C18.9477 24 18.5 24.4477 18.5 25V27C18.5 27.5523 18.9477 28 19.5 28H21.5C22.0523 28 22.5 27.5523 22.5 27V25C22.5 24.4477 22.0523 24 21.5 24H19.5ZM19.14 12H21.86C22.1474 11.9979 22.4218 12.1196 22.6132 12.334C22.8046 12.5483 22.8945 12.8347 22.86 13.12L22.06 19.56C22.0295 19.8125 21.8143 20.0019 21.56 20H19.44C19.1857 20.0019 18.9705 19.8125 18.94 19.56L18.14 13.12C18.1055 12.8347 18.1955 12.5483 18.3869 12.334C18.5783 12.1196 18.8526 11.9979 19.14 12Z" fill="#1E1E1E"/>
</svg>
