<svg width="18" height="19" viewBox="0 0 18 19" fill="none" xmlns="http://www.w3.org/2000/svg">
<path d="M17.775 16.1598C17.9169 16.3006 17.9968 16.4923 17.9968 16.6923C17.9968 16.8923 17.9169 17.084 17.775 17.2248L16.725 18.2748C16.5841 18.4168 16.3924 18.4966 16.1925 18.4966C15.9925 18.4966 15.8008 18.4168 15.66 18.2748L8.99996 11.6148L2.33996 18.2748C2.19914 18.4168 2.00744 18.4966 1.80746 18.4966C1.60748 18.4966 1.41579 18.4168 1.27496 18.2748L0.224962 17.2248C0.0829771 17.084 0.00311279 16.8923 0.00311279 16.6923C0.00311279 16.4923 0.0829771 16.3006 0.224962 16.1598L6.88496 9.49978L0.224962 2.83978C0.0829771 2.69895 0.00311279 2.50726 0.00311279 2.30728C0.00311279 2.1073 0.0829771 1.9156 0.224962 1.77478L1.27496 0.724778C1.41579 0.582794 1.60748 0.50293 1.80746 0.50293C2.00744 0.50293 2.19914 0.582794 2.33996 0.724778L8.99996 7.38478L15.66 0.724778C15.8008 0.582794 15.9925 0.50293 16.1925 0.50293C16.3924 0.50293 16.5841 0.582794 16.725 0.724778L17.775 1.77478C17.9169 1.9156 17.9968 2.1073 17.9968 2.30728C17.9968 2.50726 17.9169 2.69895 17.775 2.83978L11.115 9.49978L17.775 16.1598Z" fill="#1E1E1E"/>
</svg>
