<svg width="18" height="19" viewBox="0 0 18 19" fill="none" xmlns="http://www.w3.org/2000/svg">
<path d="M17.7748 16.16C17.9168 16.3008 17.9966 16.4925 17.9966 16.6925C17.9966 16.8925 17.9168 17.0842 17.7748 17.225L16.7248 18.275C16.584 18.417 16.3923 18.4969 16.1923 18.4969C15.9923 18.4969 15.8006 18.417 15.6598 18.275L8.99978 11.615L2.33978 18.275C2.19895 18.417 2.00726 18.4969 1.80728 18.4969C1.6073 18.4969 1.4156 18.417 1.27478 18.275L0.224778 17.225C0.082794 17.0842 0.00292969 16.8925 0.00292969 16.6925C0.00292969 16.4925 0.082794 16.3008 0.224778 16.16L6.88478 9.50002L0.224778 2.84002C0.082794 2.6992 0.00292969 2.5075 0.00292969 2.30752C0.00292969 2.10754 0.082794 1.91585 0.224778 1.77502L1.27478 0.725023C1.4156 0.583038 1.6073 0.503174 1.80728 0.503174C2.00726 0.503174 2.19895 0.583038 2.33978 0.725023L8.99978 7.38502L15.6598 0.725023C15.8006 0.583038 15.9923 0.503174 16.1923 0.503174C16.3923 0.503174 16.584 0.583038 16.7248 0.725023L17.7748 1.77502C17.9168 1.91585 17.9966 2.10754 17.9966 2.30752C17.9966 2.5075 17.9168 2.6992 17.7748 2.84002L11.1148 9.50002L17.7748 16.16Z" fill="#1E1E1E"/>
</svg>
