<?xml version="1.0" encoding="UTF-8"?>
<svg width="31" height="31" version="1.1" viewBox="0 0 700 500" xmlns="http://www.w3.org/2000/svg">
 <path d="m429.66 186.67 100.17-100.17h-0.003907c4.375-4.375 6.832-10.309 6.832-16.496s-2.457-12.125-6.832-16.5c-4.3789-4.375-10.312-6.832-16.5-6.832h-326.66c-6.1914 0-12.125 2.457-16.5 6.832s-6.8359 10.312-6.8359 16.5v443.33h46.668v-186.66h303.33c6.1875-0.003907 12.121-2.4609 16.496-6.8359s6.832-10.312 6.832-16.496c0-6.1875-2.457-12.125-6.832-16.5zm-219.66 93.332v-186.67h247l-76.832 76.84c-4.375 4.375-6.8359 10.309-6.8359 16.496s2.4609 12.121 6.8359 16.496l76.832 76.836z"/>
</svg>
