<svg width="48" height="41" viewBox="0 0 48 41" fill="none" xmlns="http://www.w3.org/2000/svg">
<path fill-rule="evenodd" clip-rule="evenodd" d="M35.9995 0.655198L11.9989 0.655197L11.9989 6.65483L35.9995 6.65527L35.9995 0.655198Z" fill="#1E1E1E"/>
<path fill-rule="evenodd" clip-rule="evenodd" d="M2.99982 7.67502L45 7.67502C46.6497 7.67502 48 9.02535 48 10.676L48 25.675C48 27.3247 46.6506 28.6751 45 28.6751L36.0003 28.6751L36.0003 40.6748L11.9997 40.6748L11.9997 28.6751L3.00004 28.6751C1.35033 28.6751 1.57628e-06 27.3257 1.78303e-06 25.675L3.66182e-06 10.676C3.86847e-06 9.02626 1.34943 7.67502 3.00004 7.67502L2.99982 7.67502ZM41.9995 15.7967C43.1716 15.7967 44.1211 14.8471 44.1211 13.6751C44.1211 12.5022 43.1715 11.5535 41.9995 11.5535C40.8266 11.5535 39.8778 12.5022 39.8778 13.6751C39.8778 14.8472 40.8265 15.7967 41.9995 15.7967ZM14.9995 37.6754L32.998 37.6754L32.998 24.1755L14.9995 24.1755L14.9995 37.6754Z" fill="#1E1E1E"/>
</svg>
