<svg width="7" height="12" viewBox="0 0 7 12" fill="none" xmlns="http://www.w3.org/2000/svg">
<path d="M6.11252 5.27975C6.24072 5.42031 6.31283 5.61102 6.31299 5.80993L6.31299 6.19007C6.31089 6.38855 6.23907 6.57848 6.11252 6.72025L1.42876 11.852C1.34321 11.9467 1.22676 12 1.10527 12C0.98379 12 0.867336 11.9467 0.781786 11.852L0.134809 11.1418C0.0490938 11.0496 0.000791644 10.9234 0.000791655 10.7917C0.000791667 10.6599 0.0490939 10.5338 0.134809 10.4416L4.18981 6L0.134809 1.55844C0.0485549 1.46453 3.86024e-05 1.33668 3.8614e-05 1.20332C3.86257e-05 1.06995 0.0485549 0.94211 0.13481 0.848195L0.781787 0.14795C0.867337 0.0532594 0.983791 -4.65893e-07 1.10528 -4.55273e-07C1.22676 -4.44652e-07 1.34321 0.0532594 1.42876 0.14795L6.11252 5.27975Z" fill="#1E1E1E"/>
</svg>
