<svg width="13" height="22" viewBox="0 0 13 22" fill="none" xmlns="http://www.w3.org/2000/svg">
<path d="M11.92 19.0801C12.0147 19.1739 12.0679 19.3017 12.0679 19.4351C12.0679 19.5684 12.0147 19.6962 11.92 19.7901L10.86 20.8501C10.7693 20.9467 10.6426 21.0016 10.51 21.0016C10.3774 21.0016 10.2507 20.9467 10.16 20.8501L0.97 11.6601C0.829308 11.5195 0.750175 11.3289 0.75 11.1301V10.8701C0.750175 10.6712 0.829308 10.4806 0.97 10.3401L10.16 1.15005C10.2507 1.05338 10.3774 0.998535 10.51 0.998535C10.6426 0.998535 10.7693 1.05338 10.86 1.15005L11.92 2.21005C12.0147 2.30394 12.0679 2.43174 12.0679 2.56505C12.0679 2.69837 12.0147 2.82617 11.92 2.92005L3.84 11.0001L11.92 19.0801Z" fill="white"/>
</svg>
